<?xml version="1.0" encoding="utf-8"?>
<!-- Generator: Adobe Illustrator 16.0.0, SVG Export Plug-In . SVG Version: 6.00 Build 0)  -->
<!DOCTYPE svg PUBLIC "-//W3C//DTD SVG 1.1//EN" "http://www.w3.org/Graphics/SVG/1.1/DTD/svg11.dtd">
<svg version="1.1" id="Layer_1" xmlns="http://www.w3.org/2000/svg" xmlns:xlink="http://www.w3.org/1999/xlink" x="0px" y="0px"
	 width="1000px" height="750px" viewBox="0 0 1000 750" enable-background="new 0 0 1000 750" xml:space="preserve">
<path fill="#167FBF" d="M182.357,407.994c1.51,0,2.967,0.224,4.352,0.615l-23.778-115.397c0,0-3.469-22.939-27.109-24.307h-7.535
	h-13.316H95.159c0,0-10.786-0.944-12.853,13.448h23.863h29.094c0,0,13.064-0.314,15.164,17.022
	c1.586,13.087,15.563,79.881,22.322,111.847C175.427,409.205,178.747,407.994,182.357,407.994z"/>
<g>
	<path fill="#167FBF" d="M281.939,428.319c-0.386-1.377-0.607-2.822-0.607-4.322c0-3.323,1.012-6.407,2.744-8.965l-88.432,0.044
		c1.714,2.549,2.716,5.617,2.716,8.921c0,1.5-0.221,2.945-0.608,4.322H281.939z"/>
	<path fill="#167FBF" d="M310.577,415.02c1.738,2.56,2.755,5.648,2.755,8.978c0,1.5-0.221,2.945-0.608,4.322h73.44
		c0,0,11.032-0.633,12.295-13.345L310.577,415.02z"/>
</g>
<g>
	<path fill="#167FBF" d="M337.444,316.728c-2.644-0.951-5.005-2.153-7.082-3.606c-2.078-1.453-3.759-3.193-5.042-5.221
		c-1.284-2.027-1.926-4.422-1.926-7.186c0-2.799,0.642-5.319,1.926-7.562c1.284-2.242,2.975-4.145,5.071-5.705
		c2.096-1.561,4.466-2.763,7.11-3.606c2.644-0.842,5.326-1.265,8.045-1.265c2.19,0,4.325,0.215,6.402,0.646
		c2.077,0.431,4.022,1.068,5.835,1.911c1.813,0.843,3.456,1.884,4.929,3.122c1.473,1.238,2.7,2.683,3.683,4.333
		c0.415,0.646,0.51,1.301,0.283,1.964c-0.227,0.665-0.548,1.193-0.963,1.588c-0.529,0.467-1.218,0.745-2.068,0.834
		c-0.85,0.09-1.671-0.152-2.464-0.727c-2.191-2.547-4.533-4.333-7.025-5.355c-2.493-1.022-5.326-1.534-8.499-1.534
		c-1.775,0-3.55,0.242-5.326,0.727s-3.39,1.193-4.844,2.126c-1.455,0.934-2.645,2.108-3.569,3.525
		c-0.926,1.418-1.388,3.06-1.388,4.925c0,1.974,0.547,3.615,1.643,4.925c1.095,1.311,2.483,2.414,4.164,3.31
		c1.68,0.897,3.521,1.624,5.524,2.18c2.001,0.557,3.909,1.049,5.722,1.48c2.795,0.826,5.524,1.758,8.187,2.799
		c2.663,1.041,5.023,2.314,7.082,3.821c2.058,1.507,3.711,3.302,4.958,5.382c1.246,2.082,1.87,4.575,1.87,7.481
		c0,3.122-0.652,5.947-1.955,8.477c-1.303,2.53-3.059,4.701-5.269,6.513c-2.21,1.812-4.779,3.211-7.706,4.198
		c-2.927,0.986-5.997,1.48-9.207,1.48c-2.682,0-5.269-0.341-7.762-1.022s-4.788-1.605-6.884-2.772
		c-2.096-1.166-3.929-2.547-5.496-4.145c-1.567-1.596-2.767-3.31-3.598-5.14c-0.566-1.148-0.651-2.107-0.255-2.879
		c0.396-0.771,0.972-1.354,1.728-1.749c0.869-0.466,1.69-0.565,2.465-0.296c0.773,0.269,1.576,0.907,2.408,1.911
		c0.717,1.436,1.69,2.728,2.917,3.875c1.227,1.149,2.615,2.126,4.165,2.933c1.548,0.808,3.229,1.426,5.042,1.857
		s3.683,0.646,5.609,0.646c2.001,0,3.994-0.287,5.977-0.861c1.983-0.573,3.768-1.435,5.354-2.583
		c1.586-1.148,2.87-2.574,3.853-4.279c0.981-1.704,1.473-3.668,1.473-5.894c0-2.045-0.492-3.758-1.473-5.14
		c-0.983-1.381-2.286-2.565-3.909-3.552c-1.625-0.986-3.456-1.83-5.496-2.53s-4.099-1.373-6.176-2.018
		C342.77,318.459,340.087,317.679,337.444,316.728z"/>
	<path fill="#167FBF" d="M388.773,314.278h36.826v-27.826c0-0.933,0.358-1.723,1.077-2.369c0.717-0.646,1.567-0.969,2.549-0.969
		c0.982,0,1.813,0.323,2.493,0.969c0.68,0.646,1.02,1.436,1.02,2.369v62.219c0,0.934-0.35,1.722-1.048,2.368
		c-0.699,0.646-1.539,0.969-2.521,0.969c-0.982,0-1.823-0.323-2.521-0.969c-0.7-0.646-1.048-1.435-1.048-2.368V321.06h-36.826
		v27.611c0,0.934-0.35,1.722-1.048,2.368c-0.699,0.646-1.539,0.969-2.521,0.969c-0.982,0-1.823-0.323-2.521-0.969
		c-0.7-0.646-1.048-1.435-1.048-2.368v-62.219c0-0.933,0.349-1.723,1.048-2.369c0.698-0.646,1.539-0.969,2.521-0.969
		c0.982,0,1.822,0.323,2.521,0.969c0.699,0.646,1.048,1.436,1.048,2.369V314.278z"/>
	<path fill="#167FBF" d="M451.604,352.008c-0.983-0.071-1.776-0.439-2.379-1.104c-0.605-0.664-0.907-1.461-0.907-2.395v-62.004
		c0-1.004,0.358-1.821,1.077-2.449c0.717-0.627,1.586-0.942,2.606-0.942h32.351c0.981,0,1.813,0.323,2.493,0.969
		c0.68,0.646,1.02,1.454,1.02,2.422c0,0.934-0.34,1.731-1.02,2.395c-0.68,0.665-1.511,0.996-2.493,0.996h-28.895v24.382h21.303
		c1.02-0.035,1.87,0.278,2.549,0.942c0.68,0.665,1.02,1.462,1.02,2.395c0,0.934-0.34,1.714-1.02,2.341
		c-0.68,0.628-1.53,0.942-2.549,0.942h-21.303v24.382h28.895c0.981,0,1.813,0.323,2.493,0.969c0.68,0.646,1.02,1.436,1.02,2.369
		c0,0.969-0.34,1.785-1.02,2.449c-0.68,0.665-1.511,0.977-2.493,0.942H451.604z"/>
	<path fill="#167FBF" d="M506.389,345.227l27.762,0.054c0.981,0,1.813,0.323,2.492,0.969c0.68,0.646,1.021,1.436,1.021,2.369
		c0,0.969-0.341,1.785-1.021,2.449c-0.68,0.665-1.511,0.977-2.492,0.942h-31.048h-0.283c-0.982,0-1.823-0.323-2.521-0.969
		c-0.7-0.646-1.048-1.435-1.048-2.368v-62.166c0-0.969,0.349-1.776,1.048-2.422c0.698-0.646,1.539-0.969,2.521-0.969
		c0.981,0,1.821,0.323,2.521,0.969c0.699,0.646,1.049,1.454,1.049,2.422V345.227z"/>
	<path fill="#167FBF" d="M555.34,289.843v58.775c0,0.933-0.34,1.731-1.02,2.395c-0.681,0.664-1.53,0.996-2.55,0.996
		c-0.982,0-1.795-0.332-2.437-0.996c-0.643-0.664-0.963-1.462-0.963-2.395v-58.775h-17.62c-0.982,0-1.813-0.332-2.493-0.996
		c-0.68-0.664-1.02-1.462-1.02-2.395s0.34-1.723,1.02-2.369c0.681-0.646,1.511-0.969,2.493-0.969h42.719
		c0.981,0,1.813,0.333,2.493,0.996c0.68,0.664,1.02,1.462,1.02,2.395c0,0.969-0.34,1.768-1.02,2.395
		c-0.681,0.628-1.512,0.942-2.493,0.942H555.34z"/>
	<path fill="#167FBF" d="M589.843,352.008c-0.982-0.071-1.776-0.439-2.38-1.104c-0.604-0.664-0.906-1.461-0.906-2.395v-62.004
		c0-1.004,0.358-1.821,1.076-2.449c0.718-0.627,1.587-0.942,2.606-0.942h32.351c0.981,0,1.813,0.323,2.493,0.969
		c0.68,0.646,1.02,1.454,1.02,2.422c0,0.934-0.34,1.731-1.02,2.395c-0.681,0.665-1.512,0.996-2.493,0.996h-28.895v24.382h21.303
		c1.02-0.035,1.869,0.278,2.549,0.942c0.681,0.665,1.021,1.462,1.021,2.395c0,0.934-0.34,1.714-1.021,2.341
		c-0.68,0.628-1.529,0.942-2.549,0.942h-21.303v24.382h28.895c0.981,0,1.813,0.323,2.493,0.969c0.68,0.646,1.02,1.436,1.02,2.369
		c0,0.969-0.34,1.785-1.02,2.449c-0.681,0.665-1.512,0.977-2.493,0.942H589.843z"/>
	<path fill="#167FBF" d="M681.511,302.814c0,2.441-0.425,4.728-1.274,6.863c-0.851,2.135-2.031,4.037-3.541,5.705
		c-1.512,1.668-3.306,3.077-5.383,4.225c-2.077,1.149-4.344,1.938-6.799,2.368l16.431,24.974c0.528,0.934,0.623,1.849,0.283,2.745
		c-0.34,0.897-0.963,1.543-1.87,1.938c-0.869,0.431-1.747,0.512-2.634,0.242c-0.888-0.269-1.578-0.798-2.068-1.587l-18.073-27.934
		h-11.954v26.319c0,0.934-0.35,1.722-1.048,2.368c-0.699,0.646-1.54,0.969-2.521,0.969c-0.982,0-1.822-0.323-2.521-0.969
		s-1.048-1.435-1.048-2.368v-62.219c0-0.969,0.349-1.767,1.048-2.396c0.699-0.627,1.539-0.942,2.521-0.942h19.036
		c2.983,0,5.779,0.503,8.385,1.507c2.606,1.005,4.873,2.387,6.799,4.144c1.927,1.759,3.446,3.84,4.562,6.244
		C680.953,297.414,681.511,300.015,681.511,302.814z M644.628,289.789v25.781h15.523c2.04,0,3.928-0.35,5.666-1.05
		c1.736-0.7,3.238-1.642,4.504-2.826c1.265-1.184,2.257-2.557,2.975-4.117c0.717-1.561,1.076-3.203,1.076-4.925
		c0-1.83-0.368-3.525-1.104-5.086s-1.738-2.915-3.003-4.063c-1.266-1.148-2.776-2.054-4.532-2.718
		c-1.757-0.664-3.654-0.996-5.694-0.996H644.628z"/>
	<path fill="#EDB22E" d="M701.453,316.162l36.713-32.079c0.755-0.681,1.614-0.996,2.578-0.942c0.963,0.054,1.784,0.422,2.464,1.104
		c0.681,0.682,1.021,1.48,1.021,2.395s-0.396,1.732-1.19,2.449l-25.269,21.959l25.042,35.631c0.604,0.826,0.803,1.696,0.595,2.61
		c-0.208,0.915-0.708,1.624-1.501,2.126c-0.831,0.503-1.728,0.682-2.691,0.539c-0.963-0.143-1.709-0.627-2.237-1.453l-24.532-34.77
		l-10.991,9.581v23.359c0,0.934-0.35,1.722-1.048,2.368c-0.699,0.646-1.54,0.969-2.521,0.969c-0.982,0-1.822-0.323-2.521-0.969
		s-1.048-1.435-1.048-2.368v-62.219c0-0.933,0.349-1.723,1.048-2.369c0.699-0.646,1.539-0.969,2.521-0.969
		c0.981,0,1.822,0.323,2.521,0.969c0.698,0.646,1.048,1.436,1.048,2.369V316.162z"/>
	<path fill="#EDB22E" d="M797.143,330.479h-32.576l-8.669,19.484c-0.416,0.897-1.076,1.517-1.982,1.857
		c-0.907,0.341-1.852,0.314-2.833-0.081c-0.944-0.395-1.559-1.023-1.842-1.884c-0.283-0.861-0.218-1.723,0.198-2.583l28.271-62.112
		c0.642-1.363,1.737-2.045,3.286-2.045c0.717,0,1.359,0.18,1.927,0.539c0.566,0.359,1,0.861,1.303,1.507l28.102,62.112
		c0.415,0.897,0.481,1.768,0.198,2.61c-0.283,0.843-0.879,1.462-1.785,1.857s-1.832,0.421-2.776,0.081
		c-0.944-0.34-1.624-0.942-2.039-1.803L797.143,330.479z M767.568,323.697h26.572l-13.314-29.764L767.568,323.697z"/>
	<path fill="#EDB22E" d="M866.092,302.814c0,2.441-0.425,4.728-1.274,6.863c-0.851,2.135-2.031,4.037-3.541,5.705
		c-1.512,1.668-3.306,3.077-5.383,4.225c-2.077,1.149-4.344,1.938-6.799,2.368l16.431,24.974c0.528,0.934,0.623,1.849,0.283,2.745
		c-0.34,0.897-0.963,1.543-1.87,1.938c-0.869,0.431-1.747,0.512-2.634,0.242c-0.888-0.269-1.578-0.798-2.068-1.587l-18.073-27.934
		h-11.954v26.319c0,0.934-0.35,1.722-1.048,2.368c-0.699,0.646-1.54,0.969-2.521,0.969c-0.982,0-1.822-0.323-2.521-0.969
		s-1.048-1.435-1.048-2.368v-62.219c0-0.969,0.349-1.767,1.048-2.396c0.699-0.627,1.539-0.942,2.521-0.942h19.036
		c2.983,0,5.779,0.503,8.385,1.507c2.606,1.005,4.873,2.387,6.799,4.144c1.927,1.759,3.446,3.84,4.562,6.244
		C865.534,297.414,866.092,300.015,866.092,302.814z M829.209,289.789v25.781h15.523c2.04,0,3.928-0.35,5.666-1.05
		c1.736-0.7,3.238-1.642,4.504-2.826c1.265-1.184,2.257-2.557,2.975-4.117c0.717-1.561,1.076-3.203,1.076-4.925
		c0-1.83-0.368-3.525-1.104-5.086s-1.738-2.915-3.003-4.063c-1.266-1.148-2.776-2.054-4.532-2.718
		c-1.757-0.664-3.654-0.996-5.694-0.996H829.209z"/>
	<path fill="#EDB22E" d="M900.424,289.843v58.775c0,0.933-0.34,1.731-1.02,2.395c-0.681,0.664-1.53,0.996-2.55,0.996
		c-0.982,0-1.795-0.332-2.437-0.996c-0.643-0.664-0.963-1.462-0.963-2.395v-58.775h-17.62c-0.982,0-1.813-0.332-2.493-0.996
		c-0.68-0.664-1.02-1.462-1.02-2.395s0.34-1.723,1.02-2.369c0.681-0.646,1.511-0.969,2.493-0.969h42.719
		c0.981,0,1.813,0.333,2.493,0.996c0.68,0.664,1.02,1.462,1.02,2.395c0,0.969-0.34,1.768-1.02,2.395
		c-0.681,0.628-1.512,0.942-2.493,0.942H900.424z"/>
</g>
<g>
	<path fill="#167FBF" d="M331.005,384.5c-0.988-0.388-1.862-0.856-2.622-1.407c-0.76-0.55-1.373-1.204-1.838-1.962
		s-0.698-1.651-0.698-2.68c0-1.102,0.256-2.08,0.769-2.938c0.513-0.856,1.183-1.57,2.009-2.138s1.771-1.001,2.835-1.299
		c1.063-0.297,2.137-0.446,3.22-0.446c0.816,0,1.628,0.077,2.436,0.23c0.807,0.153,1.562,0.383,2.265,0.69
		c0.703,0.307,1.339,0.69,1.909,1.15c0.57,0.46,1.026,1.006,1.368,1.638c0.19,0.361,0.257,0.69,0.2,0.988
		c-0.057,0.297-0.19,0.546-0.399,0.744c-0.228,0.234-0.508,0.389-0.84,0.46c-0.333,0.072-0.651,0.036-0.955-0.108
		c-0.817-0.884-1.667-1.57-2.55-2.057c-0.883-0.487-1.942-0.731-3.177-0.731c-0.665,0-1.325,0.067-1.98,0.203
		c-0.655,0.135-1.245,0.352-1.767,0.649c-0.523,0.298-0.945,0.681-1.268,1.15c-0.323,0.47-0.484,1.047-0.484,1.732
		c0,0.633,0.147,1.169,0.442,1.611c0.294,0.441,0.698,0.83,1.211,1.164c0.513,0.334,1.106,0.622,1.781,0.865
		c0.674,0.244,1.391,0.475,2.151,0.69c1.215,0.361,2.369,0.735,3.462,1.124c1.092,0.388,2.056,0.861,2.892,1.42
		c0.835,0.561,1.5,1.232,1.994,2.018c0.494,0.784,0.741,1.736,0.741,2.855c0,1.047-0.242,2.016-0.727,2.909s-1.145,1.669-1.98,2.328
		c-0.836,0.659-1.814,1.173-2.935,1.542c-1.121,0.37-2.327,0.556-3.619,0.556c-0.969,0-1.919-0.091-2.849-0.271
		c-0.931-0.181-1.81-0.455-2.636-0.826c-0.826-0.369-1.572-0.834-2.236-1.394c-0.665-0.56-1.197-1.218-1.596-1.976
		c-0.285-0.488-0.366-0.934-0.242-1.34s0.361-0.704,0.712-0.894c0.351-0.189,0.759-0.248,1.225-0.176
		c0.465,0.072,0.888,0.334,1.268,0.784c0.665,1.065,1.514,1.846,2.55,2.342c1.035,0.496,2.303,0.744,3.804,0.744
		c0.741,0,1.458-0.099,2.151-0.297c0.693-0.199,1.311-0.479,1.852-0.84c0.542-0.36,0.973-0.803,1.296-1.326
		c0.323-0.523,0.484-1.101,0.484-1.732c0-0.686-0.181-1.271-0.541-1.76c-0.361-0.486-0.851-0.91-1.467-1.271
		c-0.618-0.361-1.321-0.672-2.108-0.934c-0.789-0.262-1.61-0.501-2.465-0.718C333.008,385.244,331.992,384.889,331.005,384.5z"/>
	<path fill="#167FBF" d="M355.394,384.596c0-1.787,0.356-3.47,1.068-5.049c0.712-1.578,1.686-2.95,2.92-4.114
		s2.678-2.084,4.331-2.761c1.652-0.677,3.409-1.015,5.271-1.015c1.861,0,3.608,0.334,5.243,1.001
		c1.633,0.668,3.063,1.575,4.288,2.72c1.225,1.147,2.194,2.495,2.906,4.047c0.712,1.551,1.087,3.211,1.125,4.98v0.053v0.137v10.799
		c0,0.488-0.176,0.902-0.527,1.246c-0.352,0.342-0.784,0.514-1.296,0.514c-0.513,0-0.936-0.172-1.268-0.514
		c-0.333-0.344-0.499-0.758-0.499-1.246l-0.028-2.328c-1.254,1.318-2.731,2.383-4.431,3.195c-1.7,0.812-3.538,1.217-5.513,1.217
		c-1.862,0-3.619-0.338-5.271-1.015c-1.653-0.677-3.096-1.597-4.331-2.761s-2.208-2.531-2.92-4.101
		C355.75,388.033,355.394,386.363,355.394,384.596z M358.983,384.596c0,1.299,0.261,2.521,0.784,3.667s1.229,2.147,2.123,3.005
		c0.893,0.857,1.947,1.538,3.163,2.043c1.215,0.506,2.526,0.758,3.932,0.758c1.405,0,2.716-0.252,3.932-0.758
		c1.215-0.505,2.27-1.186,3.163-2.043c0.893-0.857,1.596-1.859,2.108-3.005c0.513-1.146,0.77-2.368,0.77-3.667
		c0-1.318-0.256-2.554-0.77-3.709c-0.513-1.154-1.215-2.16-2.108-3.018c-0.893-0.857-1.947-1.534-3.163-2.03
		c-1.216-0.496-2.526-0.745-3.932-0.745c-1.387,0-2.688,0.249-3.903,0.745c-1.216,0.496-2.275,1.173-3.177,2.03
		s-1.614,1.863-2.137,3.018C359.245,382.042,358.983,383.277,358.983,384.596z"/>
	<path fill="#167FBF" d="M406.792,391.578l8.633-18.866c0.209-0.433,0.542-0.744,0.997-0.934c0.456-0.19,0.912-0.185,1.368,0.013
		c0.475,0.199,0.798,0.514,0.969,0.947s0.152,0.885-0.057,1.354l-10.229,22.033c-0.057,0.108-0.119,0.212-0.185,0.312
		c-0.067,0.1-0.147,0.185-0.242,0.257c-0.114,0.126-0.275,0.234-0.484,0.325c-0.247,0.09-0.466,0.135-0.655,0.135
		c-0.266,0.018-0.551-0.027-0.855-0.135c-0.266-0.109-0.465-0.244-0.598-0.406c-0.133-0.162-0.238-0.325-0.313-0.487l-10.257-22.06
		c-0.209-0.451-0.223-0.894-0.042-1.327c0.18-0.433,0.499-0.749,0.955-0.947c0.456-0.198,0.912-0.207,1.368-0.027
		c0.456,0.181,0.788,0.497,0.997,0.947L406.792,391.578z"/>
	<path fill="#167FBF" d="M432.093,386.138c0.152,1.138,0.508,2.192,1.068,3.167c0.56,0.975,1.268,1.822,2.123,2.545
		c0.855,0.721,1.833,1.29,2.935,1.705c1.101,0.415,2.27,0.622,3.504,0.622c1.52,0,2.896-0.274,4.131-0.825
		c1.234-0.551,2.251-1.286,3.049-2.206c0.323-0.253,0.631-0.401,0.926-0.446c0.294-0.045,0.584-0.023,0.869,0.067
		c0.342,0.108,0.607,0.334,0.798,0.677c0.266,0.307,0.394,0.676,0.384,1.109c-0.01,0.434-0.233,0.83-0.669,1.191
		c-0.513,0.541-1.092,1.037-1.738,1.488c-0.646,0.451-1.363,0.844-2.151,1.178c-0.789,0.334-1.648,0.596-2.579,0.785
		s-1.938,0.283-3.02,0.283c-1.88,0-3.643-0.338-5.285-1.015c-1.644-0.677-3.082-1.597-4.317-2.761s-2.208-2.531-2.92-4.101
		c-0.712-1.569-1.068-3.248-1.068-5.034c0-1.787,0.356-3.461,1.068-5.021c0.712-1.561,1.686-2.924,2.92-4.087
		c1.235-1.164,2.673-2.084,4.317-2.761c1.643-0.677,3.405-1.015,5.285-1.015c1.861,0,3.619,0.334,5.271,1.002
		s3.091,1.579,4.316,2.733c1.225,1.155,2.198,2.513,2.92,4.073c0.722,1.562,1.092,3.227,1.111,4.994c0,0.47-0.162,0.862-0.484,1.178
		c-0.323,0.316-0.741,0.474-1.253,0.474H432.093z M451.667,383.269c-0.133-1.173-0.48-2.269-1.04-3.288
		c-0.561-1.02-1.282-1.904-2.166-2.652c-0.883-0.75-1.895-1.336-3.034-1.76c-1.14-0.424-2.355-0.636-3.647-0.636
		c-1.292,0-2.503,0.216-3.633,0.649c-1.13,0.433-2.133,1.024-3.006,1.773c-0.874,0.749-1.586,1.634-2.137,2.652
		c-0.551,1.021-0.883,2.107-0.997,3.262H451.667z"/>
	<path fill="#167FBF" d="M489.119,379.547c0.712-1.578,1.686-2.95,2.92-4.114s2.678-2.084,4.331-2.761
		c1.652-0.677,3.409-1.015,5.271-1.015c1.881,0,3.643,0.338,5.285,1.015s3.078,1.597,4.303,2.761s2.193,2.536,2.906,4.114
		c0.713,1.579,1.068,3.262,1.068,5.049c0,1.768-0.355,3.438-1.068,5.007s-1.682,2.937-2.906,4.101s-2.66,2.084-4.303,2.761
		s-3.404,1.015-5.285,1.015c-1.861,0-3.618-0.338-5.271-1.015c-1.653-0.677-3.096-1.597-4.331-2.761s-2.208-2.531-2.92-4.101
		c-0.712-1.569-1.068-3.239-1.068-5.007C488.05,382.809,488.407,381.126,489.119,379.547z M492.424,388.263
		c0.522,1.146,1.229,2.147,2.123,3.005c0.893,0.857,1.947,1.538,3.163,2.043c1.215,0.506,2.526,0.758,3.932,0.758
		c1.406,0,2.717-0.252,3.932-0.758c1.216-0.505,2.275-1.186,3.178-2.043s1.609-1.859,2.123-3.005
		c0.512-1.146,0.769-2.368,0.769-3.667c0-1.318-0.257-2.554-0.769-3.709c-0.514-1.154-1.221-2.16-2.123-3.018
		s-1.962-1.534-3.178-2.03c-1.215-0.496-2.525-0.745-3.932-0.745c-1.386,0-2.688,0.249-3.903,0.745
		c-1.216,0.496-2.275,1.173-3.177,2.03s-1.614,1.863-2.137,3.018c-0.522,1.155-0.784,2.391-0.784,3.709
		C491.64,385.895,491.901,387.117,492.424,388.263z"/>
	<path fill="#167FBF" d="M551.273,395.477c0,0.486-0.171,0.893-0.513,1.218s-0.77,0.487-1.282,0.487
		c-0.494,0-0.912-0.162-1.254-0.487s-0.513-0.731-0.513-1.218v-11.314v-0.136c-0.038-2.887-0.717-5.103-2.037-6.646
		c-1.32-1.542-3.168-2.313-5.542-2.313c-1.158,0-2.246,0.216-3.262,0.649c-1.017,0.434-1.909,1.033-2.679,1.801
		c-0.77,0.767-1.382,1.674-1.838,2.72c-0.455,1.046-0.703,2.175-0.74,3.384v11.801c0,0.487-0.176,0.898-0.527,1.231
		c-0.352,0.335-0.774,0.501-1.268,0.501c-0.494,0-0.917-0.166-1.269-0.501c-0.352-0.333-0.526-0.744-0.526-1.231v-22.06
		c0-0.469,0.18-0.87,0.541-1.204c0.36-0.334,0.788-0.501,1.282-0.501c0.493,0,0.911,0.167,1.254,0.501
		c0.342,0.334,0.513,0.735,0.513,1.204v2.896c1.12-1.371,2.445-2.476,3.975-3.315c1.528-0.839,3.167-1.259,4.915-1.259
		c1.633,0,3.109,0.289,4.43,0.866c1.32,0.578,2.451,1.403,3.391,2.477c0.94,1.074,1.662,2.374,2.166,3.897
		c0.503,1.525,0.764,3.227,0.783,5.103v0.136V395.477z"/>
	<path fill="#167FBF" d="M589.31,386.138c0.151,1.138,0.508,2.192,1.068,3.167s1.268,1.822,2.123,2.545
		c0.854,0.721,1.833,1.29,2.935,1.705s2.27,0.622,3.504,0.622c1.52,0,2.896-0.274,4.132-0.825c1.234-0.551,2.251-1.286,3.049-2.206
		c0.322-0.253,0.631-0.401,0.926-0.446c0.294-0.045,0.584-0.023,0.869,0.067c0.342,0.108,0.607,0.334,0.798,0.677
		c0.266,0.307,0.394,0.676,0.385,1.109c-0.01,0.434-0.233,0.83-0.67,1.191c-0.513,0.541-1.093,1.037-1.738,1.488
		s-1.363,0.844-2.151,1.178s-1.647,0.596-2.578,0.785s-1.938,0.283-3.021,0.283c-1.88,0-3.643-0.338-5.285-1.015
		s-3.082-1.597-4.316-2.761s-2.208-2.531-2.92-4.101c-0.713-1.569-1.068-3.248-1.068-5.034c0-1.787,0.355-3.461,1.068-5.021
		c0.712-1.561,1.686-2.924,2.92-4.087c1.234-1.164,2.674-2.084,4.316-2.761s3.405-1.015,5.285-1.015
		c1.861,0,3.619,0.334,5.271,1.002s3.092,1.579,4.316,2.733c1.226,1.155,2.198,2.513,2.921,4.073
		c0.722,1.562,1.092,3.227,1.111,4.994c0,0.47-0.162,0.862-0.484,1.178c-0.323,0.316-0.741,0.474-1.254,0.474H589.31z
		 M608.884,383.269c-0.133-1.173-0.48-2.269-1.04-3.288c-0.561-1.02-1.282-1.904-2.165-2.652c-0.884-0.75-1.896-1.336-3.035-1.76
		c-1.14-0.424-2.355-0.636-3.646-0.636c-1.292,0-2.503,0.216-3.633,0.649c-1.131,0.433-2.133,1.024-3.006,1.773
		c-0.874,0.749-1.586,1.634-2.137,2.652c-0.552,1.021-0.884,2.107-0.998,3.262H608.884z"/>
	<path fill="#167FBF" d="M635.181,391.578l8.634-18.866c0.208-0.433,0.541-0.744,0.997-0.934c0.456-0.19,0.911-0.185,1.367,0.013
		c0.475,0.199,0.798,0.514,0.969,0.947s0.152,0.885-0.057,1.354l-10.229,22.033c-0.058,0.108-0.119,0.212-0.186,0.312
		s-0.147,0.185-0.242,0.257c-0.114,0.126-0.275,0.234-0.484,0.325c-0.247,0.09-0.466,0.135-0.655,0.135
		c-0.267,0.018-0.551-0.027-0.854-0.135c-0.267-0.109-0.466-0.244-0.599-0.406s-0.237-0.325-0.313-0.487l-10.257-22.06
		c-0.21-0.451-0.224-0.894-0.043-1.327s0.499-0.749,0.954-0.947c0.456-0.198,0.912-0.207,1.368-0.027
		c0.456,0.181,0.788,0.497,0.997,0.947L635.181,391.578z"/>
	<path fill="#167FBF" d="M660.481,386.138c0.151,1.138,0.508,2.192,1.068,3.167s1.268,1.822,2.123,2.545
		c0.854,0.721,1.833,1.29,2.935,1.705s2.27,0.622,3.504,0.622c1.52,0,2.896-0.274,4.132-0.825c1.234-0.551,2.251-1.286,3.049-2.206
		c0.322-0.253,0.631-0.401,0.926-0.446c0.294-0.045,0.584-0.023,0.869,0.067c0.342,0.108,0.607,0.334,0.798,0.677
		c0.266,0.307,0.394,0.676,0.385,1.109c-0.01,0.434-0.233,0.83-0.67,1.191c-0.513,0.541-1.093,1.037-1.738,1.488
		s-1.363,0.844-2.151,1.178s-1.647,0.596-2.578,0.785s-1.938,0.283-3.021,0.283c-1.88,0-3.643-0.338-5.285-1.015
		s-3.082-1.597-4.316-2.761s-2.208-2.531-2.92-4.101c-0.713-1.569-1.068-3.248-1.068-5.034c0-1.787,0.355-3.461,1.068-5.021
		c0.712-1.561,1.686-2.924,2.92-4.087c1.234-1.164,2.674-2.084,4.316-2.761s3.405-1.015,5.285-1.015
		c1.861,0,3.619,0.334,5.271,1.002s3.092,1.579,4.316,2.733c1.226,1.155,2.198,2.513,2.921,4.073
		c0.722,1.562,1.092,3.227,1.111,4.994c0,0.47-0.162,0.862-0.484,1.178c-0.323,0.316-0.741,0.474-1.254,0.474H660.481z
		 M680.056,383.269c-0.133-1.173-0.48-2.269-1.04-3.288c-0.561-1.02-1.282-1.904-2.165-2.652c-0.884-0.75-1.896-1.336-3.035-1.76
		c-1.14-0.424-2.355-0.636-3.646-0.636c-1.292,0-2.503,0.216-3.633,0.649c-1.131,0.433-2.133,1.024-3.006,1.773
		c-0.874,0.749-1.586,1.634-2.137,2.652c-0.552,1.021-0.884,2.107-0.998,3.262H680.056z"/>
	<path fill="#167FBF" d="M700.114,376.178c1.291-1.39,2.839-2.491,4.644-3.303s3.752-1.218,5.841-1.218h0.058h0.171
		c0.607,0,1.073,0.158,1.396,0.474c0.323,0.316,0.484,0.717,0.484,1.205c0,0.505-0.181,0.916-0.541,1.231
		c-0.361,0.316-0.808,0.474-1.339,0.474h-0.199h-0.029c-1.424,0-2.773,0.262-4.046,0.785s-2.384,1.241-3.333,2.151
		c-0.95,0.912-1.705,1.98-2.266,3.208s-0.84,2.544-0.84,3.952v10.285c0,0.487-0.171,0.898-0.513,1.231
		c-0.343,0.335-0.761,0.501-1.254,0.501c-0.494,0-0.922-0.166-1.282-0.501c-0.361-0.333-0.541-0.744-0.541-1.231v-22.06
		c0-0.469,0.18-0.87,0.541-1.204c0.36-0.334,0.788-0.501,1.282-0.501c0.513,0,0.936,0.167,1.268,0.501s0.499,0.735,0.499,1.204
		V376.178z"/>
	<path fill="#167FBF" d="M734.675,391.471l8.662-18.758c0.208-0.433,0.541-0.744,0.997-0.934c0.456-0.19,0.911-0.185,1.367,0.013
		c0.475,0.199,0.798,0.514,0.969,0.947s0.152,0.885-0.057,1.354l-10.343,22.114l-0.086,0.217l-4.245,9.094
		c-0.209,0.451-0.546,0.763-1.012,0.935c-0.465,0.171-0.936,0.157-1.41-0.041c-0.456-0.198-0.74-0.505-0.854-0.92
		s-0.066-0.857,0.143-1.327l3.96-8.607l-9.972-21.491c-0.21-0.451-0.224-0.894-0.043-1.327s0.499-0.749,0.954-0.947
		c0.456-0.198,0.912-0.207,1.368-0.027c0.456,0.181,0.788,0.497,0.997,0.947L734.675,391.471z"/>
	<path fill="#167FBF" d="M806.046,395.477c0,0.469-0.176,0.865-0.527,1.19s-0.773,0.487-1.268,0.487s-0.917-0.162-1.268-0.487
		c-0.352-0.325-0.527-0.722-0.527-1.19v-2.166c-1.254,1.281-2.73,2.292-4.431,3.031c-1.7,0.74-3.547,1.11-5.542,1.11
		c-1.861,0-3.618-0.339-5.271-1.015c-1.652-0.678-3.097-1.602-4.331-2.775c-1.234-1.172-2.208-2.539-2.92-4.1
		c-0.713-1.561-1.068-3.235-1.068-5.021c0-1.787,0.355-3.46,1.068-5.021c0.712-1.561,1.686-2.923,2.92-4.087
		s2.679-2.084,4.331-2.761s3.409-1.015,5.271-1.015c1.995,0,3.842,0.37,5.542,1.11c1.7,0.74,3.177,1.75,4.431,3.031v-11.612
		c0-0.487,0.176-0.889,0.527-1.205c0.351-0.315,0.773-0.474,1.268-0.474s0.916,0.158,1.268,0.474
		c0.352,0.316,0.527,0.717,0.527,1.205V395.477z M782.512,384.541c0,1.299,0.256,2.526,0.77,3.682
		c0.513,1.154,1.22,2.16,2.122,3.018s1.956,1.539,3.163,2.043c1.206,0.506,2.512,0.758,3.917,0.758c1.406,0,2.717-0.252,3.933-0.758
		c1.215-0.504,2.27-1.186,3.162-2.043s1.596-1.863,2.108-3.018c0.513-1.155,0.77-2.383,0.77-3.682c0-1.317-0.257-2.549-0.77-3.695
		c-0.513-1.145-1.216-2.143-2.108-2.99s-1.947-1.521-3.162-2.017c-1.216-0.496-2.526-0.745-3.933-0.745
		c-1.387,0-2.688,0.249-3.903,0.745s-2.27,1.169-3.162,2.017c-0.894,0.848-1.601,1.846-2.123,2.99
		C782.772,381.992,782.512,383.224,782.512,384.541z"/>
	<path fill="#167FBF" d="M822.827,386.138c0.151,1.138,0.508,2.192,1.068,3.167s1.268,1.822,2.123,2.545
		c0.854,0.721,1.833,1.29,2.935,1.705s2.27,0.622,3.504,0.622c1.52,0,2.896-0.274,4.132-0.825c1.234-0.551,2.251-1.286,3.049-2.206
		c0.322-0.253,0.631-0.401,0.926-0.446c0.294-0.045,0.584-0.023,0.869,0.067c0.342,0.108,0.607,0.334,0.798,0.677
		c0.266,0.307,0.394,0.676,0.385,1.109c-0.01,0.434-0.233,0.83-0.67,1.191c-0.513,0.541-1.093,1.037-1.738,1.488
		s-1.363,0.844-2.151,1.178s-1.647,0.596-2.578,0.785s-1.938,0.283-3.021,0.283c-1.88,0-3.643-0.338-5.285-1.015
		s-3.082-1.597-4.316-2.761s-2.208-2.531-2.92-4.101c-0.713-1.569-1.068-3.248-1.068-5.034c0-1.787,0.355-3.461,1.068-5.021
		c0.712-1.561,1.686-2.924,2.92-4.087c1.234-1.164,2.674-2.084,4.316-2.761s3.405-1.015,5.285-1.015
		c1.861,0,3.619,0.334,5.271,1.002s3.092,1.579,4.316,2.733c1.226,1.155,2.198,2.513,2.921,4.073
		c0.722,1.562,1.092,3.227,1.111,4.994c0,0.47-0.162,0.862-0.484,1.178c-0.323,0.316-0.741,0.474-1.254,0.474H822.827z
		 M842.401,383.269c-0.133-1.173-0.48-2.269-1.04-3.288c-0.561-1.02-1.282-1.904-2.165-2.652c-0.884-0.75-1.896-1.336-3.035-1.76
		c-1.14-0.424-2.355-0.636-3.646-0.636c-1.292,0-2.503,0.216-3.633,0.649c-1.131,0.433-2.133,1.024-3.006,1.773
		c-0.874,0.749-1.586,1.634-2.137,2.652c-0.552,1.021-0.884,2.107-0.998,3.262H842.401z"/>
	<path fill="#167FBF" d="M857.246,384.596c0-1.787,0.355-3.47,1.068-5.049c0.712-1.578,1.686-2.95,2.92-4.114
		s2.679-2.084,4.331-2.761s3.409-1.015,5.271-1.015s3.609,0.334,5.243,1.001c1.633,0.668,3.063,1.575,4.288,2.72
		c1.225,1.147,2.193,2.495,2.906,4.047c0.712,1.551,1.087,3.211,1.125,4.98v0.053v0.137v10.799c0,0.488-0.176,0.902-0.527,1.246
		c-0.352,0.342-0.783,0.514-1.296,0.514s-0.936-0.172-1.268-0.514c-0.333-0.344-0.499-0.758-0.499-1.246l-0.028-2.328
		c-1.254,1.318-2.731,2.383-4.431,3.195c-1.7,0.812-3.538,1.217-5.514,1.217c-1.861,0-3.618-0.338-5.271-1.015
		s-3.097-1.597-4.331-2.761s-2.208-2.531-2.92-4.101C857.602,388.033,857.246,386.363,857.246,384.596z M860.836,384.596
		c0,1.299,0.261,2.521,0.783,3.667s1.229,2.147,2.123,3.005c0.893,0.857,1.946,1.538,3.162,2.043
		c1.216,0.506,2.526,0.758,3.932,0.758c1.406,0,2.717-0.252,3.933-0.758c1.215-0.505,2.27-1.186,3.162-2.043
		s1.596-1.859,2.108-3.005s0.77-2.368,0.77-3.667c0-1.318-0.257-2.554-0.77-3.709c-0.513-1.154-1.216-2.16-2.108-3.018
		s-1.947-1.534-3.162-2.03c-1.216-0.496-2.526-0.745-3.933-0.745c-1.387,0-2.688,0.249-3.903,0.745s-2.274,1.173-3.177,2.03
		s-1.614,1.863-2.137,3.018C861.097,382.042,860.836,383.277,860.836,384.596z"/>
	<path fill="#167FBF" d="M902.434,395.477c0,0.469-0.176,0.865-0.527,1.19s-0.774,0.487-1.268,0.487
		c-0.494,0-0.917-0.162-1.268-0.487c-0.353-0.325-0.527-0.722-0.527-1.19v-31.291c0-0.487,0.175-0.889,0.527-1.205
		c0.351-0.315,0.773-0.474,1.268-0.474c0.493,0,0.916,0.158,1.268,0.474c0.352,0.316,0.527,0.717,0.527,1.205V395.477z"/>
</g>
<path fill-rule="evenodd" clip-rule="evenodd" fill="#167FBF" d="M209.191,384.888c-2.726-2.729-6.344-4.251-10.17-4.257
	c-5.754-0.012-5.727-8.736,0-8.725c9.4,0.018,17.797,5.666,21.389,14.292c2.572,6.175,0.56,10.116,4.065,10.116v-0.018
	c1.149,0,2.223-0.973,2.323-1.737c-0.069-3.514-0.802-6.944-2.134-10.144c-2.799-6.721-8.28-12.202-15-15
	c-8.116-3.38-9.708-0.851-14.37-3.288c-3.773-1.971-6.003-5.759-6.003-9.878h0.019c-0.002-6.28,5.552-11.262,10.361-11.043
	c13.411,0.608,24.825,4.834,34.595,14.607c9.092,9.088,14.977,22.602,14.457,35.959h40.794v-77.939l-45.607-26.32l-22.801,13.163
	l-0.005-0.006l-22.798,13.163v16.773c0,5.765-8.758,5.765-8.758,0v-19.282c0-1.769,1.05-3.292,2.561-3.982l24.625-14.217
	l-0.005-0.011l24.994-14.428c1.42-0.822,3.11-0.755,4.427,0.03l49.917,28.829c1.404,0.806,2.188,2.273,2.19,3.779h0.017v84.83
	c0,2.417-1.96,4.376-4.378,4.376H243.91c-2.695,0-4.85-2.359-4.256-5.406c0.88-5.879,0.13-11.782-1.729-17.221
	c-3.901-11.406-12.381-20.338-23.113-24.807c-4.826-2.01-9.936-3.066-15.039-3.166c-0.705,0.094-1.741,1.149-1.741,2.319h0.017
	c0,1.143,0.951,2.204,1.717,2.313c4.628,0.103,9.108,1.055,13.249,2.78c13.804,5.747,21.968,18.375,22.509,33.395
	c0.179,4.998-5.007,10.313-11.049,10.313v-0.015c-6.12,0-11.196-5.292-11.031-10.362
	C213.553,391.326,211.651,387.348,209.191,384.888L209.191,384.888z M203.974,390.106c6.614,6.614-3.434,16.66-10.048,10.049
	C187.313,393.54,197.36,383.492,203.974,390.106L203.974,390.106z"/>
<path fill-rule="evenodd" clip-rule="evenodd" fill="#EDB22E" d="M166.454,310.659c0,0,7.284,4.422,3.399,10.55l-27.624-0.834
	c0,0-2.464-0.451-3.991,1.241l-29.967,33.65c0,0-5.734,3.873-0.612,9.817l27.53,24.475c0,0,4.053,3.282,7.956-0.465l30.907-34.703
	c0,0,1.894-1.826,1.419-3.822l-4.023-27.862C171.449,322.706,177.503,313.996,166.454,310.659z"/>
<g>
	<path fill="#FFFFFF" d="M156.805,348.599l0.523-1.532c0.144-0.039,0.142-0.037,0.29-0.077c0.426,0.4,0.855,0.813,1.207,1.263
		c1.013,1.291,2.208,1.655,3.654,1.111c0.283-0.106,0.601-0.167,0.936-0.234c0.161-0.031,0.327-0.067,0.489-0.105l0.684-0.16
		c0.138-0.031,0.187-0.202,0.086-0.301l-13.875-13.707c-0.045-0.044-0.104-0.059-0.162-0.047l-4.151,0.831
		c-0.14,0.03-0.193,0.205-0.09,0.306l0.517,0.509c0.067,0.067,0.128,0.126,0.182,0.181c0.102,0.1,0.187,0.183,0.271,0.269
		c0.389,0.404,0.789,0.809,1.175,1.203c0.902,0.914,1.831,1.861,2.684,2.836c0.932,1.066,1.391,2.115,1.398,3.196
		c0.001,0.162-0.192,0.243-0.306,0.131l-0.813-0.8c-1.353-1.336-2.754-2.718-4.123-4.083c-0.291-0.282-0.701-0.592-1.384-0.437
		c-0.601,0.135-1.215,0.248-1.863,0.362c-0.278,0.049-0.557,0.101-0.848,0.154l-0.724,0.138c-0.144,0.022-0.198,0.2-0.095,0.301
		l7.826,7.733c0.083,0.08,0.07,0.214-0.023,0.279c-0.459,0.306-0.998,0.484-1.645,0.55c-1.458,0.15-2.885-0.316-4.234-1.391
		c-0.716-0.567-1.402-1.222-2.061-1.855c-0.293-0.281-0.595-0.571-0.898-0.852c-0.09-0.083-0.177-0.172-0.282-0.273
		c-0.054-0.057-0.109-0.113-0.172-0.174l-0.276-0.269c-0.068-0.071-0.183-0.07-0.251,0l-0.27,0.273
		c-0.164,0.167-0.32,0.325-0.479,0.481c-0.435,0.437-0.846,0.845-1.245,1.289c-0.24,0.261-0.265,0.614-0.288,0.871l-0.003,0.067
		c-0.257,3.065-0.515,6.13-0.768,9.197c-0.19,2.28-0.379,4.56-0.57,6.843c0,0.022-0.02,0.074-0.032,0.113
		c-0.014,0.049-0.029,0.095-0.042,0.139l-0.061,0.217c-0.014,0.063,0.005,0.129,0.049,0.172l4.234,4.18
		c0.108,0.107,0.291,0.042,0.303-0.11l0.071-0.822c0.07-0.801,0.139-1.603,0.21-2.405c0.154-1.773,0.314-3.608,0.467-5.412
		c0.163-1.931,0.32-3.859,0.478-5.789c0.072-0.856,0.141-1.71,0.214-2.565c0.01-0.137,0.163-0.214,0.28-0.132
		c2.941,2.047,6.687,3.629,11.001,1.236c0.068-0.04,0.156-0.03,0.212,0.028c0.057,0.056,0.113,0.113,0.17,0.166
		c0.485,0.474,0.985,0.963,1.459,1.462c0.408,0.429,0.866,0.569,1.446,0.439c0.592-0.127,1.192-0.24,1.829-0.354
		c0.267-0.046,0.542-0.1,0.822-0.151l0.727-0.138c0.142-0.027,0.193-0.199,0.093-0.303l-3.916-3.865
		C156.797,348.735,156.78,348.661,156.805,348.599z"/>
</g>
<circle fill-rule="evenodd" clip-rule="evenodd" fill="#EDB22E" cx="182.358" cy="423.995" r="14.376"/>
<circle fill-rule="evenodd" clip-rule="evenodd" fill="#EDB22E" cx="297.21" cy="423.995" r="14.376"/>
<rect x="246.442" y="319.948" fill-rule="evenodd" clip-rule="evenodd" fill="#EDB22E" width="9.12" height="9.12"/>
<rect x="246.442" y="334.388" fill-rule="evenodd" clip-rule="evenodd" fill="#EDB22E" width="9.12" height="9.197"/>
<rect x="232.002" y="334.388" fill-rule="evenodd" clip-rule="evenodd" fill="#EDB22E" width="9.12" height="9.197"/>
<rect x="232.002" y="319.948" fill-rule="evenodd" clip-rule="evenodd" fill="#EDB22E" width="9.12" height="9.12"/>
</svg>
